<?xml version="1.0" encoding="utf-8"?>
<!-- Generator: Adobe Illustrator 23.0.1, SVG Export Plug-In . SVG Version: 6.00 Build 0)  -->
<svg version="1.1" id="Layer_1" xmlns="http://www.w3.org/2000/svg" xmlns:xlink="http://www.w3.org/1999/xlink" x="0px" y="0px"
	 viewBox="0 0 1127.5 1066" style="enable-background:new 0 0 1127.5 1066;" xml:space="preserve">
<style type="text/css">
	.st0{fill:url(#SVGID_1_);}
	.st1{fill:none;stroke:#FFFFFF;stroke-miterlimit:10;}
	.st2{clip-path:url(#SVGID_3_);fill:url(#SVGID_4_);}
	.st3{clip-path:url(#SVGID_3_);fill:url(#SVGID_5_);}
	.st4{clip-path:url(#SVGID_3_);fill:url(#SVGID_6_);}
	.st5{clip-path:url(#SVGID_3_);fill:url(#SVGID_7_);}
	.st6{clip-path:url(#SVGID_3_);fill:url(#SVGID_8_);}
	.st7{clip-path:url(#SVGID_3_);fill:url(#SVGID_9_);}
	.st8{clip-path:url(#SVGID_3_);fill:url(#SVGID_10_);}
	.st9{clip-path:url(#SVGID_3_);fill:url(#SVGID_11_);}
	.st10{clip-path:url(#SVGID_3_);fill:#1A1A1A;}
	.st11{clip-path:url(#SVGID_3_);}
	.st12{fill-rule:evenodd;clip-rule:evenodd;fill:#1A1A1A;}
	.st13{clip-path:url(#SVGID_3_);fill-rule:evenodd;clip-rule:evenodd;fill:#1A1A1A;}
	.st14{fill:#1A1A1A;}
	.st15{fill:none;}
</style>
<linearGradient id="SVGID_1_" gradientUnits="userSpaceOnUse" x1="234.9871" y1="532.9984" x2="892.5329" y2="532.9984">
	<stop  offset="0" style="stop-color:#001438"/>
	<stop  offset="1" style="stop-color:#21355D"/>
</linearGradient>
<circle class="st0" cx="563.8" cy="533" r="328.8"/>
<circle class="st1" cx="563.8" cy="533" r="328.8"/>
<g>
	<defs>
		<path id="SVGID_2_" d="M816,533c0,139.3-112.9,252.2-252.2,252.2c-139.3,0-252.2-112.9-252.2-252.2
			c0-139.3,112.9-252.2,252.2-252.2C703.1,280.8,816,393.7,816,533z"/>
	</defs>
	<clipPath id="SVGID_3_">
		<use xlink:href="#SVGID_2_"  style="overflow:visible;"/>
	</clipPath>
	<linearGradient id="SVGID_4_" gradientUnits="userSpaceOnUse" x1="563.7577" y1="662.8458" x2="816.3116" y2="662.8458">
		<stop  offset="0" style="stop-color:#39D14A"/>
		<stop  offset="1" style="stop-color:#39FF4A"/>
	</linearGradient>
	<polygon class="st2" points="563.8,538.6 563.8,787.1 816.3,787.1 	"/>
	<linearGradient id="SVGID_5_" gradientUnits="userSpaceOnUse" x1="563.7577" y1="662.8458" x2="816.3116" y2="662.8458">
		<stop  offset="0" style="stop-color:#F7A300"/>
		<stop  offset="1" style="stop-color:#F6B326"/>
	</linearGradient>
	<polygon class="st3" points="563.8,538.6 816.3,538.6 816.3,787.1 	"/>
	<linearGradient id="SVGID_6_" gradientUnits="userSpaceOnUse" x1="563.7577" y1="409.2299" x2="816.3116" y2="409.2299">
		<stop  offset="0" style="stop-color:#FF6402"/>
		<stop  offset="1" style="stop-color:#FF8B00"/>
	</linearGradient>
	<polygon class="st4" points="816.3,279.8 816.3,538.6 563.8,538.6 	"/>
	<linearGradient id="SVGID_7_" gradientUnits="userSpaceOnUse" x1="563.7577" y1="409.2299" x2="816.3116" y2="409.2299">
		<stop  offset="0" style="stop-color:#FF00DA"/>
		<stop  offset="1" style="stop-color:#FF3FC0"/>
	</linearGradient>
	<polygon class="st5" points="563.8,279.8 563.8,538.6 816.3,279.8 	"/>
	<linearGradient id="SVGID_8_" gradientUnits="userSpaceOnUse" x1="312.088" y1="662.8458" x2="564.6439" y2="662.8458">
		<stop  offset="0" style="stop-color:#F9ED32"/>
		<stop  offset="0.1648" style="stop-color:#1C75FF"/>
		<stop  offset="1" style="stop-color:#F9E100"/>
	</linearGradient>
	<polygon class="st6" points="564.6,538.6 564.6,787.1 312.1,787.1 	"/>
	<linearGradient id="SVGID_9_" gradientUnits="userSpaceOnUse" x1="312.088" y1="662.8458" x2="564.6439" y2="662.8458">
		<stop  offset="0" style="stop-color:#1C90FF"/>
		<stop  offset="1" style="stop-color:#00A4FF"/>
	</linearGradient>
	<polygon class="st7" points="564.6,538.6 312.1,538.6 312.1,787.1 	"/>
	<linearGradient id="SVGID_10_" gradientUnits="userSpaceOnUse" x1="452.4307" y1="331.8735" x2="417.3656" y2="524.7316">
		<stop  offset="0" style="stop-color:#00B9F2"/>
		<stop  offset="1" style="stop-color:#2F74FF"/>
	</linearGradient>
	<polygon class="st8" points="312.1,279.8 312.1,538.6 564.6,538.6 	"/>
	<linearGradient id="SVGID_11_" gradientUnits="userSpaceOnUse" x1="312.088" y1="409.2299" x2="564.6439" y2="409.2299">
		<stop  offset="0.3575" style="stop-color:#A046FF"/>
		<stop  offset="1" style="stop-color:#9D3EFF"/>
	</linearGradient>
	<polygon class="st9" points="564.6,279.8 564.6,538.6 312.1,279.8 	"/>
	<path class="st10" d="M536.2,461.2c0,0-38.2,42.4-17.9,82.9c20.2,40.5,35.9,53.8,35.9,53.8s6.3,1.2,16.1-10.4
		c0,0-12.7-9.8-13.8-13.3c-1.2-3.5,19.1-31.8,49.2-46c0,0,33.5,17,32.4,46c-1.2,28.9-26.6,29.5-36.4,37.6
		c-2.4,2-12.7,16.8-12.7,16.8s68.7,65.9,49.7,157.4l-26.1,26.6c0,0,5-108-30.2-132.9c-1.2-0.8-2.8-0.6-3.8,0.4
		c-4.4,4.7-17.1,17.2-34.2,26.5c0,0-17.3,34.7,6.4,58.4c0,0,28.3,14.5,28.9,24.3l-47.4,26l-44-20.1c0,0-53.7-103.1,22.6-183.5
		c0,0-50.1-52.6-11.6-120.9C535.1,427.3,544.3,455,536.2,461.2z"/>
	<g class="st11">
		<path class="st12" d="M442.8,483.6c0,6.8,0,13.7,0,20.5c0,1.4-0.4,2.5-1.4,3.5c-0.9,0.9-2,1.4-3.2,1.4c-6.3,0-12.7,0-19,0
			c-2.5,0-5,0-7.4,0c-7.9,0-15.9,0-23.8,0c-8.9,0-17.8,0-26.6,0c-8.2,0-16.4,0-24.5,0c-2,0-3.5-0.9-4.5-2.7
			c-0.3-0.5-0.4-1.1-0.4-1.6c0-7.1,0-14.2,0-21.3c0-6.8,0-13.5,0-20.2c0-1,0.2-2,0.8-2.9c0.7-1,1.6-1.7,2.9-1.9
			c0.5-0.1,1-0.1,1.5-0.1c6.2,0,12.3,0,18.5,0c9.7,0,19.4,0,29.1,0c9.9,0,19.7,0,29.6,0c7.9,0,15.7,0,23.6,0c2,0,3.6,0.9,4.5,2.7
			c0.2,0.5,0.4,1.1,0.4,1.6C442.8,469.5,442.8,476.5,442.8,483.6L442.8,483.6z M339.8,462.3c0,0.1,0,0.2,0,0.3c0,2.7,0,5.3,0,8
			c0,0.3,0.2,0.4,0.4,0.4c1.2,0,2.5,0,3.7,0c6.5,0,12.9,0,19.4,0c0.2,0,0.3,0,0.5,0c0-2.9,0-5.7,0-8.6
			C355.8,462.3,347.8,462.3,339.8,462.3z M432.7,479.3c0,9.6,0,19.1,0,28.7c1.8,0,3.6,0,5.4,0c0-0.2,0-0.3,0-0.5
			c0-6.6,0-13.1,0-19.7c0-2.5,0-4.9,0-7.4c0-0.7-0.5-1.1-1.1-1.1c-1.2,0-2.3,0-3.5,0C433.3,479.3,433,479.3,432.7,479.3z
			 M394.6,479.3c-1.4,0-2.7,0-4.1,0c0,9.6,0,19.1,0,28.6c1.8,0,3.6,0,5.4,0c0-0.2,0-0.4,0-0.6c0-2.6,0-5.2,0-7.8
			c0-0.9,0.1-0.7-0.8-0.8c-0.6,0-0.6,0-0.6-0.6c0-6.1,0-12.2,0-18.3C394.6,479.8,394.6,479.6,394.6,479.3z M371.9,498.8
			c-0.3,0-0.5,0-0.7,0c-0.6,0-0.6,0-0.6-0.6c0-6.1,0-12.2,0-18.3c0-0.2,0-0.4,0-0.5c-1.4,0-2.7,0-4,0c0,9.6,0,19.1,0,28.6
			c1.8,0,3.6,0,5.4,0C371.9,504.9,371.9,501.9,371.9,498.8z M426.7,498.8c0,3.1,0,6.1,0,9.2c1.8,0,3.6,0,5.4,0c0-9.6,0-19.1,0-28.7
			c-1.2,0-2.3,0-3.4,0c-0.4,0-0.6,0.1-0.6,0.5c0,4.6,0,9.2,0,13.8c0,1.5,0,3.1,0,4.6c0,0.3-0.1,0.5-0.5,0.5
			C427.4,498.8,427.1,498.8,426.7,498.8z M389.9,479.3c-0.2,0-0.3,0-0.5,0c-1,0-1.9,0-2.9,0c-0.6,0-0.6,0-0.6,0.6
			c0,5.9,0,11.9,0,17.8c0,0.2,0,0.5,0,0.7c0,0.3-0.1,0.4-0.4,0.4c-0.3,0-0.7,0-1,0c0,3.1,0,6.1,0,9.2c1.8,0,3.6,0,5.4,0
			C389.9,498.4,389.9,488.9,389.9,479.3z M365.9,508c0-0.2,0-0.4,0-0.6c0-1.7,0-3.5,0-5.2c0-3.7,0-7.3,0-11c0-3.7,0-7.5,0-11.2
			c0-0.8,0.1-0.7-0.7-0.7c-0.9,0-1.9,0-2.8,0c-0.2,0-0.3,0-0.6,0c0,0.8,0,1.6,0,2.4c0,1.1,0.1,2.2,0.1,3.3c0,4.4,0,8.8,0,13.2
			c0,0.6,0,0.6-0.6,0.6c-0.3,0-0.5,0-0.8,0c0,0.2,0,0.3,0,0.4c0,2.8,0,5.7,0,8.5c0,0.2,0.1,0.3,0.3,0.3c0.6,0,1.2,0,1.8,0
			C363.7,508,364.7,508,365.9,508z M408,508c0-0.3,0-0.5,0-0.7c0-9,0-18.1,0-27.1c0-0.2,0-0.3,0-0.5c0-0.3-0.1-0.4-0.4-0.4
			c-1.1,0-2.2,0-3.2,0c-0.3,0-0.4,0.1-0.4,0.4c0,5,0,9.9,0,14.9c0,1.1,0,2.2,0,3.3c0,1.1,0.1,0.9-0.9,0.9c-0.4,0-0.5,0.1-0.5,0.5
			c0,2.7,0,5.5,0,8.2c0,0.1,0,0.3,0,0.4C404.5,508,406.2,508,408,508z M414,508c0-0.2,0-0.3,0-0.4c0-2.7,0-5.3,0-8
			c0-0.9,0.1-0.7-0.7-0.7c-0.6,0-0.6,0-0.6-0.6c0-5.8,0-11.5,0-17.3c0-0.4,0-0.8,0-1.3c0-0.2-0.1-0.3-0.3-0.3c-1.2,0-2.3,0-3.5,0
			c-0.1,0-0.1,0-0.2,0.1c0,9.5,0,19.1,0,28.6C410.4,508,412.2,508,414,508z M352.5,479.3c-1.1,0-2.2,0-3.3,0c-0.4,0-0.7,0.3-0.7,0.8
			c0,0.2,0,0.4,0,0.6c0,8.7,0,17.3,0,26c0,0.4,0,0.8,0,1.3c1.8,0,3.6,0,5.4,0c0-3.1,0-6.1,0-9.2c-0.2,0-0.4,0-0.6,0
			c-0.8,0-0.7,0-0.7-0.7c0-6.1,0-12.2,0-18.3C352.5,479.7,352.5,479.5,352.5,479.3z M373.9,479.3c0,6.5,0,13,0,19.5
			c-0.3,0-0.6,0-0.9,0c-0.4,0-0.5,0.1-0.5,0.5c0,2.7,0,5.5,0,8.2c0,0.2,0,0.3,0,0.4c1.8,0,3.6,0,5.4,0c0-0.2,0-0.3,0-0.5
			c0-2.6,0-5.2,0-7.8c0-0.9,0.2-0.8-0.8-0.8c-0.6,0-0.6,0-0.6-0.7c0-6.1,0-12.1,0-18.2c0-0.2,0-0.4,0-0.6
			C375.6,479.3,374.8,479.3,373.9,479.3z M414.7,508c0.6,0,1.1,0,1.7,0c1.1,0,2.2,0,3.4,0c0.2,0,0.3-0.1,0.3-0.3
			c0-0.2,0.1-0.4,0.1-0.6c0-0.9-0.1-1.8-0.1-2.7c0-1.6,0-3.2,0-4.9c0-0.9,0.1-0.7-0.8-0.7c-0.6,0-0.6,0-0.6-0.7c0-6.1,0-12.2,0-18.3
			c0-0.2,0-0.4,0-0.6c-0.9,0-1.8,0-2.7,0c0,0.2,0,0.3,0,0.5c0,2.2,0,4.4,0,6.5c0,3.9,0,7.7,0,11.6c0,0.8,0,0.8-0.8,0.8
			c-0.2,0-0.3,0-0.5,0C414.7,501.9,414.7,504.9,414.7,508z M402,498.8c-0.3,0-0.6,0-0.9,0c-0.4,0-0.5-0.1-0.5-0.5
			c0-6.2,0-12.3,0-18.5c0-0.2,0-0.4,0-0.5c-0.9,0-1.8,0-2.6,0c0,0.2,0,0.4,0,0.6c0,6.1,0,12.1,0,18.2c0,0.6,0,0.7-0.7,0.7
			c-0.2,0-0.4,0-0.7,0c0,3.1,0,6.1,0,9.2c1.8,0,3.6,0,5.3,0C402,504.9,402,501.9,402,498.8z M426.1,498.8c-0.3,0-0.6,0-0.8,0
			c-0.6,0-0.6,0-0.6-0.6c0-6.1,0-12.1,0-18.2c0-0.1,0-0.3,0-0.4c0-0.2-0.1-0.3-0.3-0.3c-0.7,0-1.3,0-2,0c-0.1,0-0.3,0.2-0.3,0.3
			c-0.1,0.1,0,0.3,0,0.5c0,6,0,11.9,0,17.9c0,0.1,0,0.3,0,0.4c0,0.3-0.1,0.4-0.4,0.4c-0.3,0-0.6,0-1,0c0,3.1,0,6.1,0,9.2
			c1.8,0,3.6,0,5.4,0C426.1,504.9,426.1,501.9,426.1,498.8z M355.9,479.3c0,0.2,0,0.4,0,0.6c0,2.6,0,5.2,0,7.9c0,3.4,0,6.8,0,10.1
			c0,1,0.1,0.9-0.9,0.9c-0.4,0-0.5,0.1-0.5,0.5c0,2.7,0,5.5,0,8.2c0,0.2,0,0.3,0,0.5c1.7,0,3.4,0,5.1,0c0.2,0,0.3-0.1,0.3-0.3
			c0-0.5,0-1.1,0-1.6c0-2.2,0-4.5,0-6.7c0-0.2,0-0.3,0-0.5c-0.3,0-0.5,0-0.8,0c-0.6,0-0.6,0-0.6-0.6c0-6.1,0-12.2,0-18.3
			c0-0.2,0-0.4,0-0.6C357.6,479.3,356.8,479.3,355.9,479.3z M384,508c0-3.1,0-6.1,0-9.2c-0.2,0-0.5,0-0.7,0c-0.7,0-0.7,0-0.7-0.7
			c0-6,0-12.1,0-18.1c0-0.1,0-0.3,0-0.4c0-0.1-0.1-0.2-0.2-0.2c-0.8,0-1.5,0-2.3,0c0,0.2,0,0.4,0,0.6c0,6,0,12.1,0,18.1
			c0,0.1,0,0.3,0,0.4c0,0.3-0.1,0.4-0.4,0.4c-0.3,0-0.7,0-1,0c0,3.1,0,6.1,0,9.2C380.4,508,382.2,508,384,508z M341.6,492.7
			c0,2.3,0,4.5,0,6.8c0,0.6,0.2,0.8,0.8,0.8c0.4,0,0.8,0,1.1,0c0.6,0,0.8-0.2,0.8-0.8c0-1,0-2,0-3c0-1.8,0-3.7,0-5.5
			c0-1.7,0-3.4,0-5.2c0-0.6-0.2-0.8-0.8-0.8c-0.3,0-0.6,0-0.9,0c-0.8,0-1,0.2-1,1C341.6,488.2,341.6,490.5,341.6,492.7z
			 M338.8,492.7c0-2.3,0-4.5,0-6.8c0-0.6-0.2-0.9-0.8-0.9c-0.3,0-0.5,0-0.8,0c-0.9,0-1.1,0.2-1.1,1c0,4.1,0,8.3,0,12.4
			c0,0.4,0,0.8,0,1.2c0,0.4,0.2,0.6,0.6,0.6c0.4,0,0.8,0,1.2,0c0.7,0,0.9-0.2,0.9-0.9C338.8,497.2,338.8,495,338.8,492.7z
			 M375.3,475.2C375.3,475.2,375.3,475.2,375.3,475.2c0.8,0,1.5,0,2.3,0c0.5,0,0.7-0.3,0.7-0.8c0-1.5,0-2.9,0-4.4
			c0-0.5-0.3-0.8-0.8-0.8c-1.5,0-2.9,0-4.4,0c-0.5,0-0.8,0.4-0.8,0.8c0,1.4,0,2.9,0,4.3c0,0.6,0.2,0.8,0.8,0.8
			C373.8,475.2,374.6,475.2,375.3,475.2z M378.2,465.2c0-0.7,0-1.4,0-2.2c0-0.5-0.3-0.8-0.8-0.8c-1.5,0-2.9,0-4.4,0
			c-0.5,0-0.8,0.3-0.8,0.8c0,1.5,0,2.9,0,4.4c0,0.5,0.3,0.7,0.7,0.7c1.5,0,3,0,4.5,0c0.5,0,0.7-0.3,0.7-0.8
			C378.3,466.7,378.3,466,378.2,465.2z M382.3,468.2c0.7,0,1.4,0,2.2,0c0.6,0,0.8-0.2,0.8-0.8c0-1.5,0-2.9,0-4.4
			c0-0.5-0.3-0.8-0.8-0.8c-1.4,0-2.8,0-4.2,0c-0.5,0-0.9,0.3-0.9,0.8c0,1.4,0,2.9,0,4.3c0,0.5,0.3,0.8,0.8,0.8
			C380.9,468.2,381.6,468.2,382.3,468.2z M382.4,475.2c0.7,0,1.4,0,2.2,0c0.4,0,0.8-0.3,0.8-0.7c0-1.5,0-3,0-4.5
			c0-0.5-0.3-0.8-0.8-0.8c-1.4,0-2.8,0-4.2,0c-0.5,0-0.9,0.3-0.9,0.9c0,1.4,0,2.9,0,4.3c0,0.5,0.3,0.8,0.8,0.8
			C380.9,475.2,381.6,475.2,382.4,475.2z M389.4,475.2C389.4,475.2,389.4,475.2,389.4,475.2c0.8,0,1.5,0,2.3,0
			c0.5,0,0.8-0.3,0.8-0.7c0-1.5,0-2.9,0-4.4c0-0.5-0.3-0.8-0.8-0.8c-1.4,0-2.9,0-4.3,0c-0.5,0-0.8,0.3-0.8,0.8c0,1.5,0,2.9,0,4.4
			c0,0.5,0.2,0.7,0.7,0.7C388,475.2,388.7,475.2,389.4,475.2z M396.5,475.2c0.7,0,1.5,0,2.2,0c0.5,0,0.7-0.2,0.7-0.7
			c0-1.5,0-2.9,0-4.4c0-0.5-0.3-0.8-0.8-0.8c-1.4,0-2.9,0-4.3,0c-0.5,0-0.8,0.3-0.8,0.8c0,1.5,0,2.9,0,4.4c0,0.5,0.3,0.7,0.7,0.7
			C395,475.2,395.8,475.2,396.5,475.2z M396.4,468.2c0.8,0,1.6,0,2.3,0c0.4,0,0.7-0.2,0.7-0.6c0-1.5,0-3.1,0-4.6
			c0-0.4-0.3-0.7-0.7-0.7c-1.5,0-3,0-4.5,0c-0.4,0-0.7,0.3-0.7,0.7c0,1.5,0,3,0,4.5c0,0.5,0.3,0.7,0.7,0.7
			C395,468.2,395.7,468.2,396.4,468.2z M389.4,468.2c0.7,0,1.5,0,2.2,0c0.5,0,0.7-0.2,0.7-0.7c0-1.5,0-3,0-4.5
			c0-0.4-0.3-0.7-0.8-0.7c-1.5,0-2.9,0-4.4,0c-0.5,0-0.7,0.3-0.7,0.7c0,1.5,0,3,0,4.5c0,0.5,0.2,0.7,0.7,0.7
			C387.9,468.2,388.7,468.2,389.4,468.2z M361.8,474.7c0.4,0,0.7,0,1.1,0c0,0,0,0,0,0c0.5,0,0.8-0.3,0.8-0.8c0-0.4-0.3-0.8-0.8-0.8
			c-0.8,0-1.6,0-2.4,0c-0.5,0-0.8,0.3-0.8,0.8c0,0.4,0.4,0.7,0.8,0.7C361,474.7,361.4,474.7,361.8,474.7z M355.6,474.7
			c0.4,0,0.8,0,1.3,0c0.4,0,0.8-0.4,0.8-0.8c0-0.4-0.3-0.7-0.7-0.8c-0.8,0-1.7,0-2.5,0c-0.5,0-0.7,0.3-0.7,0.8
			c0,0.4,0.3,0.7,0.8,0.7C354.9,474.7,355.3,474.7,355.6,474.7z M347.6,474.7c0.4,0,0.8,0,1.2,0c0.4,0,0.8-0.3,0.8-0.7
			c0-0.4-0.3-0.8-0.8-0.8c-0.8,0-1.6,0-2.5,0c-0.5,0-0.7,0.3-0.7,0.8c0,0.4,0.3,0.8,0.8,0.8C346.8,474.7,347.2,474.7,347.6,474.7z
			 M341.7,474.7c0.4,0,0.7,0,1.1,0c0.5,0,0.8-0.3,0.9-0.8c0-0.5-0.2-0.8-0.8-0.8c-0.8,0-1.6,0-2.3,0c-0.6,0-0.8,0.3-0.8,0.8
			c0,0.4,0.4,0.8,0.9,0.8C341,474.7,341.3,474.7,341.7,474.7z M408.5,465.8c0-0.9-0.7-1.3-1.3-1.3c-0.7,0-1.3,0.7-1.3,1.4
			c0,0.6,0.7,1.3,1.3,1.2C407.9,467.1,408.5,466.4,408.5,465.8z M416.5,465.8c-0.1,0.8,0.7,1.3,1.3,1.4c0.6,0,1.3-0.7,1.3-1.3
			c0-0.5-0.5-1.3-1.3-1.3C417.1,464.6,416.5,465.1,416.5,465.8z M435,465.8c0.1-0.6-0.6-1.3-1.3-1.3c-0.8,0-1.2,0.7-1.3,1.3
			c0,0.6,0.7,1.3,1.3,1.3C434.3,467.1,435.1,466.7,435,465.8z M412.5,464.6c-0.7-0.1-1.3,0.6-1.3,1.3c0,0.8,0.7,1.3,1.3,1.3
			c0.6,0,1.2-0.5,1.3-1.3C413.8,465.1,413.2,464.5,412.5,464.6z M419.1,470.8c0.1-0.6-0.6-1.3-1.3-1.3c-0.7,0-1.3,0.6-1.3,1.3
			c0,0.6,0.7,1.4,1.3,1.3C418.5,472,419.1,471.5,419.1,470.8z M421.9,465.8c0,0.9,0.6,1.2,1.2,1.3c0.7,0.1,1.3-0.6,1.3-1.3
			c0-0.7-0.5-1.2-1.2-1.3C422.4,464.5,421.8,465.1,421.9,465.8z M423.2,469.5c-0.7,0-1.3,0.5-1.3,1.2c0,0.9,0.6,1.3,1.3,1.3
			c0.6,0,1.3-0.4,1.3-1.3C424.4,470,423.9,469.5,423.2,469.5z M407.2,469.5c-0.7,0-1.2,0.5-1.3,1.2c0,0.7,0.6,1.3,1.3,1.3
			c0.7,0,1.3-0.6,1.3-1.3C408.5,470,407.9,469.5,407.2,469.5z M412.6,469.5c-0.8-0.1-1.3,0.5-1.3,1.2c0,0.7,0.6,1.3,1.3,1.3
			c0.6,0,1.2-0.6,1.3-1.2C413.8,470.1,413.3,469.5,412.6,469.5z M428.5,464.6c-0.7-0.1-1.3,0.6-1.3,1.2c0,0.7,0.6,1.3,1.3,1.3
			c0.7,0,1.3-0.6,1.3-1.3C429.7,465.1,429.1,464.5,428.5,464.6z M427.2,470.8c0,0.8,0.7,1.3,1.3,1.3c0.6,0,1.3-0.7,1.3-1.3
			c0-0.7-0.6-1.3-1.3-1.3C427.8,469.5,427.2,470,427.2,470.8z M432.6,470.8c0,0.8,0.6,1.3,1.2,1.3c0.7,0,1.3-0.6,1.3-1.3
			c0-0.7-0.6-1.3-1.3-1.3C433.1,469.5,432.6,470,432.6,470.8z"/>
	</g>
	<path class="st13" d="M618.3,425.6c-1.1-0.5-1.4-1.3-0.9-2.3c0-0.1,0.1-0.2,0-0.3c-0.3-1.1-0.3-1.1,0.3-1.9c-0.2,0-0.4-0.1-0.6-0.1
		c-0.1,0-0.3,0-0.3-0.1c-0.2-0.6-0.7-0.3-1-0.3c-1.1,0.1-2.3,0.1-3.4,0.2c-0.2-0.8-0.2-0.8-1.1-0.9c-1-0.1-1.9-0.2-2.8-0.3
		c0-0.1-0.1-0.1-0.1-0.1c0-0.8,0-0.8-0.8-1c-0.8-0.3-1.7-0.6-2.5-0.9c-0.6-0.2-0.7-0.4-0.3-1c0.1-0.1,0.2-0.3,0.3-0.5
		c-0.6-0.3-1.2-0.6-1.8-0.9c-0.6-0.3-1.3-0.7-1.9-1c-1-0.6-1.1-0.9-0.4-1.9c0.1-0.1,0.1-0.2,0.2-0.3c-0.8-0.5-1.6-0.9-2.3-1.4
		c-0.4-0.3-0.8-0.6-1.2-0.9c-0.8-0.7-0.7-1.4,0.1-2.1c0.1-0.1,0.2-0.2,0.4-0.3c-0.9-0.4-1.7-1-2.2-1.8c-0.5-0.8-0.8-1.9,0.1-2.4
		c-0.5-0.9-1.2-1.8-1.5-2.7c-0.4-1.1,0.3-2,0.9-2.7c-0.5-0.6-1-1.2-1.3-1.9c-0.2-0.4-0.2-0.9-0.1-1.4c0-0.4,0.2-0.7,0.3-1.1
		c0.3-0.7,0.3-1.4,0-2.2c-0.6-1.4-0.5-2.9,0.7-4.1c-0.2-0.3-0.4-0.5-0.6-0.8c-0.7-1-0.6-2.1-0.2-3.1c0.5-1.2,0.7-2.4,0.2-3.7
		c-0.4-1.1,0.2-2.2,0.4-3.2c0-0.2,0-0.5-0.1-0.7c-1-1.6-1.8-3.4-2.2-5.3c-0.3-1.7,0.8-4,2.2-5c1.5-1,3-1.2,4.7-1.2
		c4,0.2,8,0.3,12,0.5c1.3,0.1,2.6,0.3,3.8,0.5c1.7,0.2,3.4,0.5,5.2,0.8c0-0.5,0.1-1,0.1-1.4c0-0.8,0.1-1.6,0.1-2.4
		c0.1-1-0.4-1.7-1.1-2.3c-1.1-1-1.5-2.3-1.7-3.7c-0.1-0.7-0.4-1.3-0.8-1.8c-2.1-2.6-4.8-3.6-8.1-3c-2.3,0.4-4.4,1.4-6.6,2.1
		c-0.9,0.3-1.8,0.8-2.7,0.8c-2.3,0-4.4,0.9-6.6,1.3c-2,0.3-3.9-0.2-5.7-0.8c-0.2-0.1-0.4-0.5-0.4-0.7c0-0.4,0.1-0.9,0.3-1.3
		c1.3-3.4,2.7-6.8,4-10.2c0.1-0.1,0-0.4-0.1-0.5c-0.2-0.4-0.2-0.8,0.2-1.1c0.1-0.1,0.1-0.3,0.2-0.4c0.1-0.2,0.3-0.6,0.4-0.6
		c0.8-0.1,1-0.8,1.3-1.3c0.7-1.1,1.4-2.2,2-3.4c0.5-0.8,1.2-1.2,2.1-1.3c1.5-0.1,2.9-0.2,4.4-0.2c0.4,0,0.9,0.2,1.3,0.3
		c0.1,0,0.3,0.2,0.3,0.3c0,0.5,0.4,0.5,0.7,0.6c0.8,0.2,1.6,0.1,2.5-0.1c0.2-0.1,0.5,0,0.8,0.1c-0.9,0.9-2,0.9-3.2,1.2
		c0.7,1.4,2.2,2.3,2.6,4c-1.2,0.4-1.9-0.2-2.6-0.9c-0.6-0.6-1.1-1.3-1.6-2.1c-0.2-0.3-0.5-0.4-0.8-0.4c-0.8,0.1-1.6,0.2-2.4,0.3
		c-0.1,0-0.2,0-0.3,0.1c-0.4,0.6-1,0.6-1.7,0.5c-0.6,1.3-1.1,2.6-1.7,3.9c0.1,0.1,0.2,0.2,0.3,0.3c0.1,0.2,0.4,0.6,0.3,0.7
		c-0.4,0.6-0.2,1.5-1.2,1.8c-0.1,0-0.2,0.3-0.2,0.4c-0.4,1.6-0.8,3.2-1.1,4.8c0.6-0.5,1.6-0.5,1.9-1.3c0.1-0.2,0.4-0.3,0.6-0.4
		c2.6-1.6,5.2-3.2,7.8-4.8c0.4-0.3,0.9-0.5,1.4-0.7c0.7-0.3,1.4-0.7,2-1c0.5-0.2,0.9-0.4,1.4-0.5c0.8-0.1,1.5-0.4,2.1-0.8
		c0.4-0.3,0.8-0.4,1.2-0.7c0.3-0.2,0.6-0.5,0.8-0.8c0.2-0.3,0.4-0.6,0.8-0.6c0.4,0,0.5-0.4,0.5-0.7c-0.2-0.8-0.3-1.6-0.6-2.3
		c-0.5-1.4-0.5-1.4-1.9-1c-0.3,0.1-0.7,0.2-1,0.2c-0.5,0-0.9-0.2-1.3-0.6c-0.6-0.9-1.2-1.7-1.8-2.5c-0.6-0.7-0.9-1.4-1.1-2.2
		c-0.2-0.7-0.4-1.5-0.9-2c-1.4-1.7-1.2-5.4,0.1-6.8c0.1-0.1,0.2-0.4,0.2-0.5c-0.3-1.3,0.1-2.2,1.2-3c1.2-0.8,2.5-1.3,3.9-1.5
		c-0.5-0.7-0.2-1.2,0.5-1.6c0.1,0,0.2-0.2,0.2-0.2c0.1-0.7,0.7-0.7,1.1-0.6c0.6,0.1,1.1,0,1.6,0.5c0.2,0.2,0.8,0.2,1.2,0.1
		c0.7-0.2,1.4,0.3,1.4,1c0,0.1,0.1,0.3,0.3,0.4c0.6,0.4,0.8,1,0.9,1.7c0.1,0.7,0.2,1.4,0.4,2.1c0.1,0.5,0.5,0.7,1,0.8
		c0.8,0.1,1.6,0.2,2.4,0.4c0.2,0,0.4,0.2,0.6,0.3c0.3,0.4,0.6,0.8,0.8,1.3c0.2,0.3,0.3,0.6,0.7,0.7c0.1,0,0.2,0.2,0.2,0.3
		c0,0.8,0,1.7,0,2.5c0,0.3-0.1,0.6-0.2,0.9c-0.2,0.4-0.4,0.8-0.6,1.2c-0.1,0-0.2,0-0.5,0c0,0.2,0,0.4,0,0.5
		c-0.2,0.1-0.3,0.2-0.5,0.3c-0.5,0.2-0.6,1.1-1.4,0.7c-0.1-0.1-0.4,0.2-0.6,0.3c-0.2-0.1-0.4-0.2-0.7-0.3c0.5,1.4,2.4,3.3,3.4,3.5
		c1.5,0.4,3,0.2,4.2-0.9c1-0.9,2.1-1.4,3.3-1.7c1.7-0.5,3.3-1.1,4.9-1.6c0.6-0.2,1.2-0.5,1.9-0.8c0.2-0.1,0.4-0.2,0.6-0.2
		c1.9,0.1,3.7-0.4,5.5-0.6c0.6-0.1,1.1-0.2,1.7-0.3c0-0.1,0-0.1,0-0.2c-1.2-0.7-2.4-1.3-3.6-2c-0.2,0.1-0.4,0.2-0.6,0.2
		c-0.6,0-1.2,0-1.8-0.2c-0.3-0.1-0.5-0.5-0.6-0.8c-0.1-0.4-0.3-0.5-0.6-0.7c-1-0.3-2-0.8-3.1-1.1c-0.3-0.1-0.8,0-1.1,0.2
		c-0.9,0.4-1.7,0.9-2.5,1.3c-0.6,0.4-1.2,0.7-1.7,1.2c-0.1,0.1-0.1,0.3,0,0.4c0.1,0.5,0.2,0.9,0.3,1.4c0,0.6,0.5,0.9,0.8,1.2
		c0.5,0.5,0.8,1.1,0.5,1.8c-0.2,0.4-0.4,0.5-0.8,0.2c-0.2-0.2-0.4-0.4-0.6-0.6c-0.6-0.8-1.1-1.7-1.6-2.6c-0.2-0.4-0.4-0.8-0.6-1.2
		c-0.8,0.3-1.3,1.1-2.4,1.1c0.1-0.7,0.7-1,1-1.4c0.1-0.1,0.2-0.1,0.2-0.2c0.8-0.6,0.8-0.6,0.4-1.5c-0.2-0.4,0-0.6,0.2-0.8
		c0.9-0.6,1.7-1.3,2.6-1.9c0.3-0.2,0.6-0.4,0.9-0.6c1.4-1.2,3.1-1.3,4.8-1c1.2,0.2,2.4,0.5,3.6,0.6c0.2,0,0.6-0.1,0.8-0.3
		c0.3-0.3,0.6-0.4,1-0.3c0.1,0,0.3,0,0.4,0c0.3,0,0.6,0.1,0.9,0.2c0.8-0.3,1,0.1,1,0.9c1.8,0.5,3.6,0.9,5.3,1.5
		c1.9,0.6,3.7,1.2,5.6,1.8c0.8,0.3,1.1,0.9,0.8,1.8c-0.5,1.8-1.4,3.3-3.1,4.2c-1.6,0.9-3.2,1.8-4.8,2.8c-0.4,0.2-0.6,0.6-1,0.9
		c-0.5,0.4-0.9,0.8-1.4,1c-2.2,0.9-4.3,1.8-6.5,2.7c-1.4,0.5-2,1.5-2.1,3c-0.2,2.8,0,5.5,0.4,8.3c0.2,1.5,0.7,2.8,1.4,4.1
		c0.8,1.4,0.8,2.8,0.7,4.3c-0.1,0.8,0.2,1.4,0.7,1.9c2.1,1.7,3.4,4,4.7,6.3c0.8,1.5,1.7,2.9,1.9,4.6c0.1,1.2,0.8,2.3,0.6,3.6
		c-0.2,0.9-0.5,1.7-0.7,2.6c-0.3,1.8-0.7,3.7-0.9,5.6c-0.2,2.3-0.9,4.5-1.8,6.6c-0.6,1.4-0.8,2.8-1.1,4.2c-0.7,3.7-1.4,7.4-2.6,11
		c-0.5,1.6-1.4,3-2.5,4.2c-1.1,1.2-1.9,2.7-2.6,4.2c-0.8,1.7-1.6,3.5-2.5,5.1c-0.5,0.9-1.2,1.6-1.8,2.3c-0.7,0.8-1.3,1.6-2,2.4
		c-0.4,0.5-0.9,1-1.3,1.5c-0.2,0.2-0.4,0.3-0.5,0.5c-0.2,0.3-0.2,0.7,0.1,1c0.5,0.4,0.5,0.8,0.3,1.4c-0.1,0.3-0.1,0.7-0.2,1
		c-0.1,0.2-0.2,0.4-0.3,0.7c-0.1,0.1-0.1,0.3-0.1,0.5c0,0.6-0.3,1-0.9,0.9c-0.2,0.6-0.5,1.2-1.4,1.1c0.7,0.8,1.1,1.6,2,2
		c1.1,0.5,2,1.3,2.6,2.3c0.2,0.3,0.2,0.6-0.3,0.6c-1.3,0.2-2.5,0.4-3.8,0.5c-1,0.1-1.6-0.6-2.3-1.2c-0.2-0.2-0.3-0.4-0.5-0.5
		c-0.5-0.5-1.1-0.6-1.8-0.5c-0.7,0.1-1.4,0.2-2.1,0.1c-0.8-0.1-1.2-0.8-1-1.6c0.1-0.3,0.2-0.7,0.4-1
		C618,427.9,618,426.7,618.3,425.6z"/>
	<g class="st11">
		<path class="st12" d="M771.4,483.6c-0.6,2.3-1.1,4.3-1.6,6.4c-1.4,4.9-3.3,9.6-6.3,13.7c-2.3,3.1-5,5.6-8.4,7.6
			c-1.4,0.8-2.6,1-4.2,0.7c-6-1-10.3-4.2-13.7-9.1c-0.6-0.9-1.2-1.9-1.9-2.9c-0.7,1.6-1.4,3.2-2.1,4.7c-2.9,5.9-6.3,11.5-10.6,16.4
			c-3.4,3.9-7.4,7.1-12.3,9c-2.1,0.8-4.5,1.1-6.7,1.7c-0.1,0-0.3,0-0.5-0.1c-2.9-1.5-5.6-3.2-7.7-5.7c-1.9-2.2-3-4.8-3.8-7.5
			c-1.5-5.2-2.1-10.6-2.4-16.1c-0.1-1.3,0.1-1-1.1-1.3c-0.9-0.2-1.7-0.3-2.6-0.6c-4.4-1.3-6.6-4-6.9-8.6c-0.2-3.2,0.3-6.3,0.9-9.3
			c1-5.3,2.2-10.5,3.2-15.8c0.5-2.8,0.9-5.6,0.6-8.4c-0.4-3.2-2.1-5.3-5.2-6c-2.2-0.5-4.4-0.6-6.6-0.9c-0.4,0-0.7,0-1.1-0.1
			c-0.4-0.1-0.6-0.4-0.2-0.7c0.6-0.3,1.3-0.8,2-0.7c2.1,0.2,4.2,0.3,6.3,0.8c3.9,0.9,6.1,3.7,6.4,7.7c0.3,3.3-0.2,6.5-0.8,9.6
			c-1,5.3-2.2,10.6-3.2,15.9c-0.5,2.7-0.9,5.3-0.7,8c0.2,3.5,1.9,5.7,5.2,6.8c1.1,0.4,2.3,0.6,3.6,0.9c0.1-1.6,0.2-3,0.4-4.5
			c0.3-2.4,0.6-4.9,0.9-7.3c0-0.3,0-0.8-0.2-1.1c-1.8-2.8-2-5.7-0.7-8.7c1.1-2.6,2.7-4.9,4.3-7.1c2.3-3.4,4.7-6.7,7-10.1
			c1-1.5,1.8-3.1,2.5-4.7c1.2-2.9,0.5-4.9-2.1-6.8c-1.6-1.1-3.3-2.1-5.4-2.3c-1.4-0.2-2.8,0-4,0.8c-1.8,1.1-3.2,2.6-4.3,4.5
			c-0.7,1.4-0.8,2.8,0,4.1c0.4,0.7,0.9,1.2,1.3,1.9c0.3,0.6,0.6,1.2,0.9,1.8c0.2,0.4-0.1,0.7-0.6,0.5c-0.5-0.3-0.9-0.6-1.3-1
			c-0.5-0.5-0.8-1.1-1.2-1.6c-1.6-2.3-1.7-4.7-0.1-7.1c1.2-1.8,2.7-3.4,4.6-4.5c2.5-1.5,5-1.3,7.6-0.3c1.7,0.7,3.3,1.7,4.6,3
			c1.7,1.7,2.3,3.7,1.8,6c-0.5,2.5-1.8,4.6-3.2,6.7c-2.5,3.7-5.2,7.4-7.7,11.1c-1.2,1.9-2.3,3.9-3.3,5.9c-0.8,1.6-1,3.3-0.4,5
			c0.1,0.2,0.1,0.3,0.2,0.5c0,0.1,0.1,0.2,0.2,0.4c0.2-0.8,0.4-1.5,0.6-2.2c0.7-2.8,1.7-5.5,3.3-7.9c2.8-4.3,6.8-6.6,11.8-7.4
			c4-0.7,8-0.7,12.1-0.8c0.2,0,0.5,0.1,0.7,0.2c1.9,0.9,3.8,1.8,5.7,2.7c0.2,0.1,0.4,0.2,0.7,0.3c0-0.4,0-0.7,0-1
			c-0.1-3.4,0-6.8,1.4-10c1.4-3.4,3.9-6,7-7.9c2.7-1.7,5.7-2.9,8.7-4c0.7-0.2,1.4-0.4,2-0.7c1.1-0.5,2.1-0.6,3.3-0.4
			c3.6,0.5,7.3,0.8,10.8,1.8c3.5,1,6.7,2.4,9.2,5.1c2.4,2.6,3.5,5.8,4.1,9.2c0.7,4.6,0.7,9.2,0.2,13.7c-0.1,0.6,0.1,0.7,0.6,0.9
			c1.7,0.7,3.3,1.4,4.9,2.2c3,1.6,5.2,4,5.8,7.5c0.4,2.5,0.1,4.9-0.5,7.3c-1.1,4.1-2.3,8.2-3.4,12.3c-0.5,1.9-0.8,3.8-1.2,5.7
			c-0.1,0.6,0,1.3,0.1,2c0.2,1.3,0.9,2.3,2.2,2.8c0.9,0.3,1.9,0.6,2.8,0.6c2.1,0,4.3-0.1,6.4-0.2c0.6,0,1.1-0.1,1.7-0.1
			c0.5,0,0.9,0.2,0.9,0.8c0,0.6-0.4,0.8-0.9,0.8c-2,0.1-4,0.3-6,0.3c-1.8,0.1-3.6-0.1-5.2-0.7c-2.2-0.8-3.4-2.5-3.5-4.8
			c-0.2-2.3,0.4-4.5,1-6.6c1.1-4.1,2.3-8.1,3.5-12.2c0.6-2.1,0.9-4.3,0.9-6.5c-0.1-2.5-1.1-4.6-3-6.2c-2.1-1.7-4.5-2.7-7.1-3.7
			c-0.2,1.2-0.4,2.2-0.5,3.3c0,0.2,0.2,0.5,0.4,0.7c1.9,2.4,3.6,5,4.6,8c1.4,4.4,1,8.4-1.2,12.5c-1.7,3.3-4.2,6-6.3,9
			c-1.5,2.2-3,4.4-4,6.9c-1.9,4.7-0.3,9.4,4.1,12c2.5,1.5,4.5,1.2,6.5-0.9c1.6-1.6,2.6-3.6,3.7-5.6c0.5-0.9,1-1.8,1.5-2.7
			c0.3-0.5,0.7-0.8,1.3-0.4c0.5,0.4,0.3,0.8,0.1,1.3c-1.4,2.4-2.8,4.8-4.3,7.2c-0.5,0.8-1.2,1.5-2,2.1c-1.8,1.6-3.9,1.9-6.2,1
			c-5.3-2-8.2-8.1-6.4-13.5c0.9-2.8,2.4-5.2,4.1-7.6c1.9-2.7,3.9-5.4,5.8-8.2c1.3-1.9,2.4-4,2.7-6.4c0.4-3.7-0.7-7.1-2.5-10.2
			C772.8,485.6,772.1,484.7,771.4,483.6z M718.8,467.2c-0.2,0-0.3-0.1-0.4-0.1c-4,0.1-7.9,0.1-11.8,0.8c-3.6,0.7-7,2-9.5,4.9
			c-1.9,2.2-3.3,4.8-4.2,7.6c-1.7,4.8-2.5,9.9-3,15c-0.7,7.7,0.1,15.2,2,22.6c1,3.8,2.7,7.3,6,9.8c1.7,1.3,3.5,2.4,5.3,3.6
			c0.9-3.8,1.8-7.4,2.7-11.1c-0.4-0.1-0.7-0.2-1-0.2c-2.5-0.3-5-0.3-7.5,0.1c-0.5,0.1-1.1,0.1-1.6,0.1c0-0.1-0.1-0.2-0.1-0.3
			c0.3-0.2,0.5-0.5,0.8-0.6c1.4-0.7,2.9-1.3,4.3-2.1c1.7-1,3.6-1.5,5.5-1.6c0.4,0,0.6-0.2,0.7-0.6c0.5-1.8,1-3.5,1.4-5.3
			c0.1-0.2,0.1-0.4,0.1-0.7c-1.1-0.3-2.2-0.6-3.4-0.9c0.3-0.8,0.6-1.6,0.9-2.4c0.1-0.2,0.3-0.4,0.5-0.5c0.5-0.5,1.1-0.9,1.4-1.5
			c0.6-1,1.2-2.1,1.7-3.2c0.9-2,2-4.1,2.5-6.2c2.1-8.1,3.9-16.3,5.9-24.5C718.4,469.1,718.6,468.2,718.8,467.2z M746.4,446.3
			c-0.1,0-0.2,0-0.2,0c-4.1,1.5-8.2,3-11.9,5.3c-4.4,2.7-7,6.5-7.8,11.7c-0.6,4.4-0.2,8.8,0.6,13.2c1.3,7.2,3.9,14,7,20.6
			c1.6,3.3,3.6,6.3,6.2,8.9c1.8,1.8,3.7,3.4,6.1,4.3c2,0.8,4.1,1.2,6.3,1.6c0-0.2,0-0.3,0-0.4c-0.4-3.3-0.8-6.7-1.2-10
			c0-0.4-0.2-0.5-0.6-0.6c-1.9-0.3-3.7-0.9-5.2-2.2c-1.6-1.3-3.3-2.5-4.9-3.8c0,0,0-0.1,0-0.2c3.4,0.6,6.7,1.6,10.2,1.2
			c-0.1-1.1-0.1-2-0.2-3c0-0.2-0.3-0.4-0.5-0.4c-0.8,0-1.7,0-2.5,0.1c-0.9,0.1-0.9,0.1-0.9-0.8c0-0.6,0-1.2,0.1-1.7
			c0-0.2,0.2-0.4,0.2-0.6c0.3-0.7,0.8-1.4,0.9-2.1c0.4-3.5,0.7-7,1.1-10.5c0.1-1.1,0.2-2.2,0.1-3.3c-0.7-7.3-1.5-14.6-2.3-21.8
			C746.8,449.9,746.6,448.1,746.4,446.3z M722.3,499.9c0.7-0.1,1.8-0.2,2.9-0.3c0.6-0.1,1.2-0.3,1.7-0.5c0.7-0.3,1.5-0.5,1.5-1.4
			c0-0.9-0.8-1.2-1.5-1.4c-3.4-1.2-6.9-1.2-10.3-0.1c-0.7,0.2-1.5,0.5-1.5,1.4c0,0.9,0.8,1.2,1.5,1.5
			C718.3,499.8,720.1,499.9,722.3,499.9z M755,480.1c3.4-0.3,6.3-1.2,9-3c0.4-0.3,0.8-0.7,1.1-1.1c0.6-0.8,0.3-1.4-0.6-1.7
			c-0.6-0.2-1.2-0.2-1.7-0.2c-3.1,0.2-6,1.1-8.6,2.9c-0.5,0.3-0.9,0.8-1.3,1.3c-0.5,0.7-0.3,1.3,0.5,1.6
			C754,480,754.6,480.1,755,480.1z M751,492.2c1.2,0,2.4,0,3.5,0c0.2,0,0.4-0.1,0.5-0.2c0.6-0.7,0.7-1.7,0.1-2.5
			c-0.3-0.4-0.6-0.8-1-1c-1-0.6-1.5-1.5-1.8-2.6c-0.3-0.9-0.5-1.7-0.6-2.6c-0.3-2.6-0.6-5.3-1.5-7.8c-0.1-0.3-0.2-0.5-0.4-0.8
			c-0.1,0-0.1,0-0.2,0.1C750.1,480.6,750.5,486.4,751,492.2z M709.2,509.3c1.2,0.4,2.3,0.8,3.4,1.2c0.1,0,0.3,0,0.5-0.1
			c0.9-0.6,1.2-1.6,0.8-2.6c-0.2-0.4-0.5-0.8-0.7-1.3c-0.2-0.5-0.6-1.1-0.6-1.6c0-1.3,0-2.6,0.2-3.8c0.5-2.6,1.2-5.2,1.1-7.8
			c0-0.3,0-0.5-0.1-0.8c-0.1,0-0.2,0-0.2,0C712.2,498.1,710.7,503.7,709.2,509.3z M767,472c0-0.1,0-0.2,0-0.3
			c-0.4-0.2-0.8-0.4-1.3-0.6c-1.6-0.4-3.1-0.9-4.7-1.2c-1-0.2-2-0.1-2.9,0.1c-2.5,0.5-4.3,2.2-5.9,4c-0.3,0.3-0.6,1.1-0.5,1.2
			c0.6,0.5,0.9-0.2,1.3-0.5c1.3-1.4,2.8-2.6,4.8-2.8c1-0.1,2-0.1,3.1-0.1c1.8,0.1,3.6,0.2,5.4,0.3C766.4,472.1,766.7,472,767,472z
			 M730.9,495.3c0-0.1,0-0.2,0-0.2c0-0.1-0.1-0.2-0.1-0.2c-1.8-1.6-3.8-3.1-6.1-3.9c-3.4-1.2-6.4,0.2-9.2,2
			c-0.1,0.1-0.2,0.3-0.3,0.5c0.2,0.1,0.5,0.3,0.7,0.3c0.2,0,0.4-0.2,0.7-0.3c2.6-1.5,5.3-1.6,8.1-0.4c1.8,0.8,3.6,1.5,5.4,2.2
			C730.4,495.3,730.7,495.3,730.9,495.3z M751.6,500.5c3.5-1.6,6.5-3.6,8.7-6.4c-2.9,0.7-5.9,1.5-9,2.3
			C751.3,497.6,751.4,499,751.6,500.5z M707.2,516.1c-0.3,1.4-0.6,2.7-0.8,3.8c3,1.1,5.9,2.2,8.7,3.3
			C713.2,520.2,710.5,518,707.2,516.1z"/>
		<path class="st12" d="M699.2,489.8c0.3,0,0.6,0.1,0.9,0.1c3.4,0.8,6.3,2.3,9,4.5c0.3,0.3,0.7,0.7,0.9,1.1c0.4,0.6,0.2,1.1-0.6,1.1
			c-0.5,0-1.1,0-1.7-0.1c-3.1-0.8-6-2.2-8.5-4.2c-0.3-0.3-0.6-0.5-0.9-0.9c-0.2-0.3-0.5-0.8-0.3-1.1c0.1-0.3,0.7-0.4,1-0.6
			C699.2,489.8,699.2,489.8,699.2,489.8z"/>
		<path class="st12" d="M701.7,485.3c2-0.1,3.8,0.5,5.3,1.6c1.5,1.1,2.9,2.3,4.3,3.4c0.2,0.1,0.2,0.5,0.3,0.7
			c-0.3,0.1-0.6,0.3-0.9,0.2c-0.5-0.2-1-0.5-1.5-0.7c-1.7-0.9-3.4-1.7-5.1-2.6c-1.9-1-3.9-1.1-5.9-0.5c-0.5,0.1-1,0.3-1.5,0.2
			c-0.3,0-0.6-0.4-0.9-0.6c0.2-0.2,0.4-0.6,0.7-0.7c1.7-0.5,3.4-0.9,5.1-1.3C701.7,485.1,701.7,485.2,701.7,485.3z"/>
		<path class="st12" d="M738.3,476.6c2.5,0.2,4.9,0.5,7.2,1.4c0.6,0.2,1.2,0.5,1.7,0.9c0.7,0.5,0.6,1.1-0.2,1.4
			c-0.8,0.2-1.6,0.4-2.3,0.4c-2.9,0.1-5.7-0.3-8.4-1.3c-0.5-0.2-1-0.5-1.5-0.8c-0.7-0.5-0.6-1.1,0.2-1.4
			C736,476.9,737.1,476.7,738.3,476.6z"/>
		<path class="st12" d="M739.1,471.3c1.7,0,3.2,0.5,4.7,1.1c1,0.4,2,0.7,2.9,1.2c0.2,0.1,0.4,0.4,0.6,0.6c-0.3,0.1-0.6,0.4-0.8,0.4
			c-1.3-0.1-2.5-0.4-3.8-0.5c-1.3-0.2-2.7-0.4-4-0.5c-2-0.2-3.7,0.6-5.4,1.7c-0.4,0.3-0.8,0.5-1.3,0.6c-0.2,0.1-0.6-0.1-0.8-0.3
			c-0.1-0.1,0-0.6,0.2-0.7C733.7,472.9,736,471.3,739.1,471.3z"/>
	</g>
	<g class="st11">
		<path class="st12" d="M520.5,328.2c0.3-0.8,0.7-1.6,1-2.4c-1.1-0.6-2.5-1.2-3.9-1.9c0.1,0,0,0,0,0c-0.6,1.2-0.9,1.3-2.1,0.7
			c-0.2-0.1-0.4-0.2-0.6-0.3c-0.5-0.3-0.7-0.8-0.5-1.3c0.4-0.9,0.8-1.7,1.2-2.5c0.3-0.5,0.8-0.6,1.3-0.4c0.1,0,0.2,0.1,0.4,0.2
			c1.5,0.8,1.5,0.8,1,2.3c1.4,0.7,2.7,1.3,4.1,2c0.7-1.3,1.4-2.5,2.1-3.8c-1.4-0.7-2.8-1.4-4.2-2.1c-0.1,0.1-0.1,0.2-0.2,0.4
			c-0.4,0.7-0.9,0.7-2.2,0c-0.7-0.4-0.9-0.8-0.6-1.4c0.4-0.8,0.8-1.7,1.2-2.5c0.4-0.7,0.9-0.7,2.2,0c0.7,0.4,0.9,0.8,0.6,1.4
			c-0.1,0.3-0.3,0.5-0.4,0.7c1.5,0.7,2.9,1.4,4.4,2.2c0.8-1.5,1.7-3.1,2.7-4.9c-0.6-0.2-1.1-0.4-1.6-0.7c-0.6-0.3-0.7-0.7-0.5-1.3
			c0.6-1.5,0.9-1.6,2.3-0.8c0.3,0.1,0.6,0.3,0.8,0.5c0.7-0.8,1.3-1.6,2-2.3c0.2-0.3,0.5-0.3,0.8-0.1c0.1,0,0.2,0.1,0.2,0.1
			c0.5,0.5,1.7,0.2,1.6,1.4c-0.1,0.8-0.2,1.5-0.4,2.3c0,0.2-0.1,0.4-0.3,0.7c0.5,0.2,1,0.4,1.5,0.6c0.6,0.3,0.7,0.7,0.4,1.3
			c-0.7,1.5-0.9,1.6-2.3,0.8c-0.2-0.1-0.4-0.2-0.7-0.4c-0.4,0.9-0.8,1.7-1.1,2.5c1.3,0.6,2.6,1.3,4,1.9c-0.1,0,0,0,0,0
			c0.2-0.5,0.5-1.2,1.1-1c0.7,0.2,1.4,0.6,2,1.1c0.2,0.1,0.1,0.6,0,0.9c-0.4,0.8-0.8,1.7-1.2,2.5c-0.3,0.5-0.8,0.7-1.3,0.5
			c-0.2-0.1-0.3-0.1-0.5-0.2c-1.4-0.7-1.4-0.8-0.9-2.2c-1.3-0.6-2.6-1.2-3.9-1.9c-0.5,1.1-1.1,2.4-1.6,3.6c1.3,0.6,2.5,1.2,3.8,1.8
			c-0.1,0,0,0,0,0c0.3-0.5,0.5-1.2,1.1-1c0.7,0.2,1.4,0.6,2,1c0.2,0.1,0.1,0.7,0,0.9c-0.3,0.8-0.7,1.6-1.2,2.4
			c-0.3,0.6-0.8,0.8-1.5,0.5c-0.1,0-0.2-0.1-0.3-0.1c-1.4-0.7-1.5-0.8-0.9-2.3c-1.2-0.6-2.4-1.2-3.7-1.8
			c-4.7,10.5-9.4,20.9-14.1,31.4c1,0.8,2.1,1.6,3.1,2.4c1.9,1.6,3.6,3.5,4.6,5.9c1.6,3.6,1,7.1-1,10.4c-1.1,1.8-2.5,3.3-4.2,4.6
			c-0.7,0.5-1.4,1.2-2,1.9c-0.8,1-1.2,2.2-0.8,3.6c-0.2,0.1-0.5,0.2-0.8,0.3c-0.2-0.2-0.3-0.4-0.5-0.7c-0.8-1-2-1.3-3.1-0.6
			c-0.7,0.4-1.3,1-1.8,1.6c-2.1,2.6-3.6,5.6-4.3,8.8c-0.3,1.3-0.3,2.6,0,3.8c0.6,2.2,2.2,3.5,4.5,3.5c0.6,0,0.9,0.2,1,0.8
			c0.1,0.3,0.2,0.6,0.3,0.9c-2.7,0.9-3.4,3-3.4,5.6c0,3.8-0.8,7.3-2.6,10.6c-2.8,5.3-7.3,7.7-13.3,7.3c-4-0.3-7.7-1.6-11.3-3.3
			c-0.3-0.1-0.6-0.3-0.9-0.5c-0.6,0.9-1.1,1.6-1.7,2.4c-0.2,0.2-0.7,0.5-0.9,0.5c-0.5-0.2-1.2-0.2-1.3-1c0-0.2,0-0.4,0.1-0.6
			c0.3-0.8,0.6-1.7,0.9-2.5c-1.6-0.9-3.1-1.8-4.6-2.7c-2.5-1.6-4.7-3.5-6.4-6c-2.7-3.9-3.2-8-1.5-12.4c1.5-3.7,3.8-6.8,7-9.3
			c0.2-0.1,0.3-0.2,0.5-0.4c2.3-1.7,2.8-3.2,2.3-6c0.5-0.2,0.9-0.3,1.4-0.4c0.2,0,0.4,0.2,0.5,0.3c1.6,1.9,3.8,2.5,6.1,1.3
			c0.8-0.4,1.6-1,2.3-1.7c2.6-2.8,4.2-6.1,5-9.8c0.1-0.5,0.1-1,0.1-1.5c-0.1-1.5-1-2.3-2.4-2.3c-0.2,0-0.5,0-0.8,0
			c-0.1-0.3-0.1-0.5-0.2-0.8c2.3-1,2.7-3,2.7-5.2c0-2.3,0.3-4.6,1.3-6.8c2-4.7,5.5-7.1,10.6-7.2c2.7-0.1,5.3,0.6,7.9,1.4
			c0.2,0.1,0.4,0.1,0.7,0.2c0.6-1.2,1.3-2.3,1.9-3.5c3.9-7.1,7.7-14.1,11.6-21.2C520.3,328.5,520.4,328.3,520.5,328.2
			c0,0.2,0,0.5-0.2,0.7c-7.5,14.1-15,28.2-22.4,42.3c-3,5.6-6,11.3-9,16.9c-0.4,0.7-0.8,1.4-1.2,2.3c-0.6-0.3-1.2-0.6-1.7-1
			c-0.2,0.4-0.4,0.7-0.7,1.2c0.7,0.2,1.3,0.5,1.9,0.7c-1.7,3.5-3.3,6.9-4.9,10.3c-0.2-0.1-0.4-0.1-0.6-0.2
			c-2.3,6.6-4.6,13.1-6.9,19.7c0.9-0.7,1.8-1.5,2.6-2.4c0.4-0.4,0.8-0.9,1.1-1.5c1.8-3.5,3.5-7,5.2-10.5c0.1-0.1,0.1-0.3,0.2-0.4
			c0.1-0.1,0.3-0.1,0.3-0.1c0.1,0.1,0.2,0.2,0.1,0.3c0,0.1-0.1,0.3-0.2,0.4c-1.7,3.3-3.3,6.7-5,10c-0.4,0.8-0.7,1.6-0.7,2.6
			c0,0.9-0.1,1.8-0.2,2.6c0,0,0.1,0,0.1,0c3.9-5.6,7.8-11.1,11.7-16.7c-0.3-0.2-0.5-0.3-0.8-0.5c1.9-3.3,3.7-6.6,5.6-10.1
			c0.6,0.4,1.1,0.7,1.5,0.9c0.3-0.4,0.5-0.7,0.8-1.1c-0.7-0.3-1.2-0.5-1.8-0.8c0.1-0.2,0.2-0.4,0.3-0.6c4.2-9,8.3-17.9,12.5-26.9
			c5.5-11.8,10.9-23.5,16.4-35.3c0.1-0.3,0.4-0.5,0.6-0.8c0.1,0,0.1-0.1,0.2-0.1c-0.5-0.2-1.1-0.4-1.6-0.6
			C522.7,329.2,521.6,328.7,520.5,328.2z M524.9,329.1c0.1-0.2,0.1-0.4,0.2-0.6c1-2.1,2.1-4.2,3.1-6.3c0.6-1.2,1.3-2.5,1.9-3.7
			c0.3-0.7,0.1-1.4-0.5-1.9c-0.5-0.4-1.3-0.4-1.8,0.1c-0.2,0.2-0.4,0.5-0.5,0.7c-1.7,3.3-3.3,6.6-4.9,9.9c-0.1,0.1-0.1,0.3-0.1,0.3
			C523.1,328.2,523.9,328.6,524.9,329.1z M498.5,388.9c0.1-0.1,0.2-0.1,0.3-0.2c0.7-0.7,1.4-0.8,2-0.5c0.7,0.3,0.9,0.9,0.7,1.9
			c-0.3,1.7-0.9,3.2-1.9,4.5c-0.5,0.7-1.1,1.4-1.7,2.2c-1.1,1.6-1.8,3.3-1.9,5.2c0,1,0.2,1.9,0.8,2.7c0.8,0.9,2,1.2,2.9,0.6
			c1-0.6,1.7-2.1,1.3-3.1c-0.1,0.2-0.2,0.4-0.3,0.5c-0.3,0.4-0.6,0.8-1,1.1c-0.7,0.5-1.4,0.3-1.6-0.5c-0.1-0.4-0.2-0.8-0.2-1.3
			c-0.1-1.6,0.4-3,0.9-4.5c0.7-1.9,1.7-3.5,2.8-5.1c0.6-0.8,1.1-1.6,1.3-2.5c0.5-1.8-1-3.4-2.8-3.2
			C499.3,387,498.4,387.9,498.5,388.9z M477.8,390.5c-0.7,0.3-1.1,0.8-1.4,1.3c-0.4,0.9-0.6,1.8,0,2.6c0.6,0.9,1.5,1.1,2.5,1
			c0.3,0,0.5-0.1,0.8-0.2c1.4-0.5,2.3-1.5,3.1-2.7c0.9-1.4,1.3-2.9,1.7-4.5c0.5-2,1.4-3.7,2.9-5.2c0.6-0.6,1.2-0.7,1.8-0.4
			c0.7,0.3,0.9,0.9,0.9,1.6c0,0.2,0,0.4,0,0.6c0,0,0.1,0,0.1,0.1c0.1-0.2,0.3-0.3,0.4-0.5c0.5-0.9,0.3-2.1-0.5-2.8
			c-1.3-1.1-3.3-0.7-4.2,0.9c-0.4,0.7-0.6,1.4-0.8,2.1c-0.6,2.5-1.8,4.7-3.3,6.7c-0.7,1-1.6,1.8-2.7,2.4c-1.1,0.5-1.9,0-1.8-1.1
			c0-0.4,0.2-0.9,0.3-1.3C477.6,390.9,477.7,390.8,477.8,390.5z"/>
		<path class="st12" d="M506.8,434.3c-0.9-0.4-1.7-0.8-2.5-1.1c0.2-0.5,0.4-0.9,0.6-1.3c0.7-1.5,1.5-3,2.2-4.4
			c0.1-0.2,0.3-0.2,0.5-0.4c0.1-0.1,0.2-0.3,0.3-0.5c2.6-5.3,5.3-10.6,7.9-15.9c7.7-15.4,15.3-30.8,23-46.2
			c4.6-9.2,9.2-18.5,13.8-27.7c0.1-0.3,0.2-0.5,0-0.8c-0.3-0.5,0.1-1.5,0.7-1.7c0.3-0.1,0.7,0,0.9,0.1c0.2,0.2,0.2,0.5,0.3,0.8
			c0.1,0.3,0,0.6,0.2,0.8c0.3,0.6,0.9,1.1,1,1.7c0,0.6-0.5,1.2-0.8,1.8c-7.4,14.2-14.8,28.3-22,42.6c-6.4,12.4-12.6,24.9-18.2,37.8
			c-3,7-6.5,13.8-9.9,20.6c0,0,0,0.1-0.1,0.1c-0.1,0.3-0.3,0.6-0.7,0.4c-0.4-0.2-0.3-0.5-0.1-0.8c0.2-0.4,0.4-0.8,0.6-1.1
			C505.1,437.6,505.9,436,506.8,434.3z M509.7,428.2c0.5-1,1-1.9,1.4-2.8c2.1-4.6,4-9.3,6.2-13.8c5.7-11.9,11.5-23.7,17.5-35.5
			c6.3-12.4,12.8-24.7,19.3-37.1c0.5-1,0.5-1.6-0.2-2.4c-0.3-0.3-0.7-0.3-0.9,0c-0.1,0.1-0.1,0.2-0.2,0.3c-4.1,8.3-8.3,16.7-12.4,25
			c-3.4,6.9-6.9,13.8-10.3,20.7c-5.7,11.4-11.3,22.7-17,34.1c-1.7,3.5-3.5,6.9-5.2,10.4C508.6,427.6,509.1,427.9,509.7,428.2z
			 M507.5,431.6c0.5-0.2,0.7-0.6,0.5-1.1c-0.2-0.4-0.6-0.7-1.1-0.5c-0.5,0.1-0.7,0.6-0.6,1.1C506.6,431.5,507.1,431.8,507.5,431.6z"
			/>
		<path class="st12" d="M490.2,391.4c-0.7-0.4-1.3-0.7-2-1c10.9-20.5,21.8-41.1,32.8-61.7c0.3,0.2,0.6,0.3,1,0.5
			C511.4,349.9,500.8,370.6,490.2,391.4z"/>
		<path class="st12" d="M495.1,393.8c-0.7-0.4-1.4-0.7-2.1-1.1c10.2-20.9,20.5-41.8,30.7-62.8c0.2,0.1,0.5,0.3,0.7,0.4
			C514.7,351.5,504.9,372.6,495.1,393.8z"/>
		<path class="st12" d="M522.4,329.4c0.3,0.2,0.6,0.3,0.9,0.5c-10.2,20.9-20.5,41.8-30.7,62.7c-0.7-0.3-1.3-0.7-1.9-1
			C501.2,370.9,511.8,350.1,522.4,329.4z"/>
		<path class="st12" d="M490.1,392.8c0.6,0.3,1.2,0.6,1.8,0.9c-1.7,3.3-3.4,6.7-5,10.1c-0.5-0.3-1.2-0.6-1.7-0.9
			C486.8,399.6,488.4,396.2,490.1,392.8z"/>
		<path class="st12" d="M487.6,391.6c0.7,0.3,1.3,0.7,1.9,1c-1.7,3.3-3.3,6.7-5,10.1c-0.5-0.3-1.1-0.6-1.7-0.9
			C484.4,398.4,486,395,487.6,391.6z"/>
		<path class="st12" d="M488.9,404.9c-0.6-0.3-1-0.5-1.5-0.7c1.7-3.4,3.4-6.8,5.1-10.2c0.6,0.3,1.2,0.6,1.9,1
			C492.6,398.3,490.8,401.6,488.9,404.9z"/>
	</g>
</g>
<g>
	<path class="st14" d="M390.8,635.1c-0.1-3.2-0.1-6.5,0-9.7c0.1-3.2-1.2-5.5-3.9-7.1c-1.9-1.1-3.5-2.5-4.8-4.2
		c-1.1-2.4-1.9-4.9-2-7.5c-0.2-3.9-0.1-7.9-0.1-11.8c0.1-0.5,0.3-1.1,0.3-1.6c0.2-1.4,0.9-2.3,2.4-2.3c1.6,0,2.2,1,2.3,2.4
		c0.1,1.4,0.2,2.8,0.3,4.2c0,1.9,0,3.8-0.1,5.7c0,1.1,0.3,1.9,1.5,1.9c1.1,0,1.8-0.6,1.8-1.8c0-1.6-0.1-3.2-0.1-4.7
		c0-10.1,0.1-20.2,0.1-30.3c1-1.2,2.3-1.3,3.6-0.7c1.3,0.6,1.2,1.9,1.2,3.1c0,4,0.1,8,0.1,12c0,2.8-0.1,5.6-0.1,8.5
		c0,1.1,0.3,1.8,1.6,1.9c1.4,0,1.9-0.6,1.6-1.9c0-0.8,0.1-1.6,0.1-2.4c0-7.8,0-15.7,0-23.5c0-1.5,0-2.9,2-3.2c2-0.2,2.8,0.6,2.8,3
		c0,8.5,0,17.1,0,25.6c0,1.2,0.1,2.3,1.7,2.3c1.8,0.1,1.6-1.2,1.6-2.3c0-5.5,0-11.1,0-16.6c0-1.6,0.1-3.2,0.2-4.7
		c0.1-1.5,1.2-2.2,2.6-2.1c1.5,0.1,2,1.1,2,2.4c0,2.5,0,4.9,0,7.4c0,4.5-0.1,9-0.1,13.5c0,1.2,0,2.4,1.8,2.4c1.7,0,1.5-1.2,1.5-2.3
		c0-3.4-0.1-6.8,0-10.2c0.1-1.7,0.5-3.7,2.8-3.6c2.3,0.1,1.9,2,1.9,3.6c0,9.1,0,18.2,0,27.3c-0.2,1.2-0.4,2.4-0.6,3.6
		c-1,2.2-2,4.3-3.9,5.8c-1,0.8-1.2,1.7-1.2,2.9c0,4.9,0.1,9.8,0,14.7"/>
	<g>
		<rect x="432.3" y="596.2" class="st14" width="1.2" height="7.3"/>
		<g>
			<path class="st14" d="M363.9,596.2c-0.8,0-1.5,0.7-1.5,1.5v4.2c0,0.8,0.7,1.5,1.5,1.5h3.6v-7.3H363.9z"/>
			<rect x="368.3" y="596.2" class="st14" width="63.1" height="7.3"/>
		</g>
		<g>
			<polygon class="st14" points="438.4,598.4 434.3,596.2 434.3,603.4 438.4,601.2 			"/>
			<polygon class="st14" points="438.9,600.9 441.1,599.8 438.9,598.7 			"/>
		</g>
	</g>
</g>
<g>
	<path class="st12" d="M694.8,616.5c0.5,0.8,1,1.6,1.5,2.4c0.1,0.1,0.5,0.1,0.7,0.1c0-0.2,0.1-0.5,0-0.7c-2-2.6-2.3-5.6-2.2-8.7
		c0.1-2.1,0.4-4.2,0.7-6.4c0.1,0,0.2,0,0.3,0c-0.1,0.9-0.2,1.7-0.2,2.6c-0.3,3.4-0.3,6.9,1,10.1c0.6,1.4,1.6,2.6,2.4,3.8
		c0.1,0.2,0.6,0.2,1,0.3c-0.1-0.3-0.1-0.7-0.3-0.9c-2.1-2-2.8-4.7-3.1-7.4c-0.5-5.7,0.5-11.2,1.9-16.8c2.2,0.7,4.3,1.4,6.5,2.1
		c-0.5,1.9-1,3.9-1.5,5.8c-1,4.6-2,9.1-1.8,13.9c0.1,1.3,0.4,2.7,0.6,4c0,0.2,0.5,0.4,0.7,0.6c0-0.3,0.2-0.6,0.1-0.9
		c-0.8-2.8-0.6-5.7-0.3-8.6c0.2-1.7,0.5-3.3,0.9-4.9c-0.1,1.1-0.2,2.1-0.2,3.2c-0.2,3.2-0.4,6.5,0.2,9.7c0.1,0.6,0.4,1.1,0.7,1.6
		c0.1,0.1,0.4,0.2,0.6,0.1c0.1,0,0.2-0.4,0.1-0.6c-0.9-1.5-0.9-3.1-0.8-4.7c0.2-5.2,0.6-10.4,1-15.6c0.1-1,0.2-2,0.5-3
		c0.1-0.2,0.5-0.6,0.7-0.5c2.6,0.2,5.2,0.5,8,0.7c-0.2,1.2-0.3,2.6-0.5,4c-0.7,4.6-1.4,9.2-2.9,13.6c-0.6,1.9-1.3,3.8-2.9,5.3
		c-0.1,0.1-0.1,0.5-0.1,0.7c0.2,0,0.6,0.1,0.7-0.1c0.7-0.9,1.4-1.7,1.9-2.6c1.6-3.1,2.3-6.4,3-9.7c0.2-0.8,0.3-1.5,0.5-2.3
		c-0.2,3.3-0.4,6.6-1.4,9.8c-0.5,1.5-1.1,3-2.3,4.2c-0.2,0.2-0.1,0.5-0.1,0.8c0.3-0.1,0.7,0,0.8-0.2c0.7-0.9,1.5-1.8,1.9-2.9
		c0.7-2.2,1.5-4.5,1.7-6.9c0.4-4,0.3-8.1,0.5-12.2c0-0.6,0.1-1.1,0.2-1.6c2.5-0.3,5-0.6,7.6-1c-0.1,1.6-0.1,3.2-0.2,4.8
		c-0.3,4.4-1,8.7-3,12.7c-1.1,2.2-2.5,4.1-4.6,5.5c-0.2,0.1-0.3,0.5-0.4,0.8c0.3,0,0.7,0.1,1-0.1c0.4-0.2,0.8-0.5,1.2-0.6
		c0.4,0,0.8,0.2,1.1,0.1c4.2-2,7.5-5.1,9.9-9.1c2.1-3.5,3-7.3,2.9-11.3c-0.1-1.9-0.2-3.8-0.3-5.8c0-0.3,0.3-0.7,0.6-0.9
		c1.3-1,2.3-2.2,2.6-3.9c0.1-0.6,0.2-1.2,0.1-1.8c-0.5-2,0.6-3.7,0.9-5.6c1,0.3,1.9,0.6,2.8,0.9c-1.2,4.9-3,9.7-3.8,14.7
		c0.1,0,0.3,0.1,0.4,0.1c1.3-4.9,2.7-9.7,4-14.6c0.1,0,0.3,0.1,0.4,0.1c-1.4,8.4-2.7,16.9-4.1,25.3c0.1,0,0.2,0.1,0.3,0.1
		c0.1-0.3,0.3-0.5,0.4-0.8c0.8-4.5,1.5-9.1,2.2-13.6c0.5-3.4,1.1-6.8,1.6-10.2c0-0.2,0.1-0.5,0.2-0.8c1.4,0.1,2.7,0.3,4.2,0.4
		c-2.5,8.3-4.9,16.5-7.4,24.8c0.1,0.1,0.2,0.1,0.4,0.2c0.1-0.2,0.4-0.4,0.4-0.7c0.9-3,1.8-6,2.7-9.1c1.1-3.5,2.1-7,3.2-10.6
		c0.1,0,0.2,0,0.2,0c-1,6.7-2.1,13.4-3.1,20.1c0.1,0,0.2,0.1,0.3,0.1c0.1-0.3,0.3-0.5,0.4-0.8c1.2-7.7,2.3-15.3,3.5-23
		c0.1-0.4,0.1-0.8,0.2-1.2c1.1-0.1,2.2-0.2,3.4-0.3c-1.1,8.6-3.7,16.7-5.9,25c0.1,0.1,0.3,0.1,0.4,0.2c0.2-0.3,0.4-0.6,0.5-1
		c1.1-4.1,2.3-8.3,3.4-12.4c0.1-0.3,0.2-0.6,0.4-0.8c-0.6,4.5-1.3,8.9-1.9,13.4c1,0.3,1.4,0,1.7-0.9c1.5-5.3,3-10.6,4.5-15.9
		c0.1-0.3,0.2-0.5,0.4-0.8c-0.1,1.5-0.3,3-0.4,4.4c-0.2,1.7-0.4,3.4-0.5,5.1c0,0.3,0.1,0.6,0.3,0.8c3,3.6,2.4,8.5-1.4,11.2
		c-2.3,1.7-5,2.4-7.7,2.9c-3.7,0.6-7.4,0.4-11-1c-0.6-0.2-1.1-0.5-1.7-0.8c-0.8,0.7-1.5,1.5-2.3,2.2c-0.2,0.2-0.2,0.6-0.2,0.9
		c0,1,0.1,2,0,3c-0.2,2.5-1.6,4.3-3.5,5.7c-3.4,2.7-7.3,4-11.5,4.5c-5.7,0.6-11.2,0-16.5-2.3c-0.7-0.3-1.3-0.7-1.9-1.1
		c-4-2.7-5-7.3-2.6-11.4c1.2,1.1,2.5,2.2,3.8,3.2C694.4,617.6,694.6,617.5,694.8,616.5L694.8,616.5z"/>
	<path class="st12" d="M732.5,582.4c0.2-0.6,0.4-1.1,0.6-1.6c0.3,0.1,0.6,0.3,1,0.4c-0.2,0.9-0.3,1.9-0.7,2.6
		c-0.6,0.7-0.4,1.5-0.6,2.3c-0.5,2.4-2.1,4-4,5.3c-3.2,2-6.8,2.9-10.5,3.2c-7.5,0.5-14.8-0.7-21.5-4.4c-2.5-1.3-4.7-3-6.4-5.2
		c-3-4-2.3-8.4,1.9-11.3c2.9-2,6.3-2.9,9.8-3.3c7.3-0.8,14.3,0.3,20.9,3.4c3,1.4,5.6,3.1,7.7,5.6c0.1,0.2,0.3,0.3,0.5,0.4
		c0.7,0.4,1.5,0.7,1,1.8C732.1,581.7,732.3,582,732.5,582.4z M705.6,571.6c-1.1,0.1-2.5,0.1-3.9,0.3c-2.8,0.4-5.6,1-8,2.6
		c-3.1,2.1-3.6,5.1-1.4,8.1c1.5,2,3.5,3.3,5.7,4.4c6.6,3.2,13.5,4.4,20.8,3.7c3.1-0.3,6-1,8.6-2.8c3-2.1,3.4-5,1.3-7.9
		c-1.2-1.6-2.7-2.7-4.4-3.7C718.7,573,712.5,571.7,705.6,571.6z"/>
	<path class="st12" d="M694.8,616.5c-1.9-0.8-3.2-2.3-4.4-3.9c-1.7-2.4-2.4-5.1-2.5-8c-0.2-4.9,1.2-9.4,3.1-13.8
		c2,1.2,4,2.3,5.9,3.5c-0.7,2.5-1.5,5-2.1,7.6c-1,4.1-1.5,8.2-0.7,12.5C694.4,615.1,694.6,615.8,694.8,616.5
		C694.8,616.5,694.8,616.5,694.8,616.5z"/>
	<path class="st12" d="M738.8,566.4c4.1,0,8.3,1.1,12.1,3.3c1.7,1,3.1,2.3,2.9,4.6c-0.2,2.4-1.4,4-3.6,4.9c-2.4,1-4.9,1-7.4,0.8
		c-4.8-0.2-9-1.8-12.3-5.4c-0.2-0.3-0.5-0.5-0.6-0.8c-1.7-2.6-1.1-4.9,1.7-6.1C733.9,566.7,736.2,566.4,738.8,566.4z M737.5,567.5
		c-1.8,0-3.5,0.1-5,1.1c-1.4,0.9-1.6,2.2-0.7,3.5c0.4,0.6,0.9,1.2,1.5,1.7c3.8,2.8,8.1,3.9,12.8,3.9c1.7,0,3.4-0.2,4.7-1.4
		c0.8-0.7,1.1-1.5,0.6-2.5c-0.4-0.8-1-1.6-1.7-2.2C746.1,568.7,742,567.6,737.5,567.5z"/>
	<path class="st12" d="M729.6,594.2c0.4,4.2,0.6,8.3-0.7,12.4c-1.2,3.8-4.8,8.7-7.3,10.1c0.6-1.8,1.4-3.8,1.8-5.8c0.7-3,0.8-6,0.7-9
		c-0.1-1.6-0.1-3.2-0.1-4.8c0-0.3,0.2-0.7,0.4-0.7C726,595.6,727.7,594.9,729.6,594.2z"/>
	<path class="st12" d="M745.2,606.1c0.3-2,0.6-4,0.8-6.1c0.8-5.6,1.6-11.1,2.4-16.7c0.1-0.5,0.2-0.8,0.7-0.9
		c0.8-0.2,1.5-0.5,2.4-0.8C750.4,590.1,747.8,598.1,745.2,606.1z"/>
	<path class="st12" d="M687.2,610.1c-0.6-1-1.1-2.1-1.7-3.1c0-0.1-0.1-0.2-0.1-0.3c0.7-0.9-0.1-1.6-0.4-2.4c-1-3.3-0.8-6.7,0.1-10
		c0.5-1.9,1.2-3.7,1.8-5.5c0.2-0.6,0.4-1.3,0.6-2.1c0.6,0.8,1.1,1.3,1.6,1.9c0.1,0.2,0,0.6-0.1,0.9c-0.8,3-1.8,6-2.4,9
		C685.7,603.4,685.9,604.4,687.2,610.1z"/>
	<path class="st12" d="M686.1,582.4c0.3,1.1,0.6,2.1,0.8,3.1c0.1,0.2,0.1,0.6-0.1,0.8c-1.5,2-2.7,4.2-3.5,6.6
		C683.8,589.3,684.7,585.8,686.1,582.4z"/>
	<path class="st12" d="M717.9,618.9c2.3-2.6,3.6-5.7,4.6-9C722,613.4,720.9,616.7,717.9,618.9z"/>
	<path class="st12" d="M688.1,595.5c0.6-1.9,1.2-3.8,1.8-5.7c0.1,0,0.2,0,0.2,0c0.1,0.2,0.2,0.5,0.2,0.7c-0.7,1.7-1.4,3.4-2,5.1
		C688.2,595.5,688.1,595.5,688.1,595.5z"/>
	<path class="st12" d="M714,585.2c-2.7-0.2-5.4-0.7-7.7-2.4c-0.3-0.2-0.5-0.4-0.8-0.7c-1.1-1.3-0.9-2.6,0.7-3.3
		c1.8-0.8,3.7-0.8,5.7-0.6c2.3,0.3,4.4,0.9,6.3,2.3c0.4,0.3,0.8,0.7,1,1.1c0.6,1,0.4,2-0.6,2.6C717.2,585.1,715.7,585.2,714,585.2z"
		/>
	<path class="st12" d="M743,574.8c-1.9-0.1-3.7-0.5-5.3-1.5c-0.2-0.1-0.4-0.3-0.6-0.4c-0.5-0.5-1.2-1.1-0.9-1.8
		c0.3-0.5,0.9-1.1,1.5-1.2c2.9-0.7,5.7-0.2,8.2,1.5c0.6,0.4,1.2,1.1,0.9,1.8c-0.3,0.5-0.9,1-1.5,1.2
		C744.5,574.7,743.7,574.7,743,574.8z"/>
</g>
<g>
	<path id="SVGID_x5F_12_x5F_" class="st15" d="M315.5,430.9C370.2,293.8,525.7,227,662.8,281.7C800,336.4,866.8,491.9,812.1,629.1
		C757.3,766.2,601.8,833,464.7,778.3C327.5,723.6,260.7,568,315.5,430.9z"/>
	<text>	<textPath  xlink:href="#SVGID_x5F_12_x5F_" startOffset="92.5253%">
<tspan  style="fill:#FFFFFF; font-family:'Arkibal-Heavy'; font-size:46px; letter-spacing:180;">TSWR FINE ARTS SCHOOL</tspan>	</textPath>
</text>
</g>
<g>
	<path id="SVGID_x5F_13_x5F_" class="st15" d="M870.3,532.3c0-169.3-137.3-306.6-306.6-306.6c-169.3,0-306.6,137.3-306.6,306.6
		c0,169.3,137.3,306.6,306.6,306.6C733.1,838.9,870.3,701.6,870.3,532.3z"/>
	<text>	<textPath  xlink:href="#SVGID_x5F_13_x5F_" startOffset="-33833.1641%">
<tspan  style="fill:#FFFFFF; font-family:'hillaniafont'; font-size:59px; letter-spacing:140;">Created To Create</tspan>	</textPath>
</text>
</g>
</svg>
